<svg width="16" height="16" viewBox="0 0 16 16" fill="none" xmlns="http://www.w3.org/2000/svg">
<g opacity="0.5">
<path d="M11.2264 3.86426C11.4795 3.86426 11.6887 4.05236 11.7218 4.29641L11.7264 4.36426V13.4428C11.7264 13.7189 11.5025 13.9428 11.2264 13.9428C10.9732 13.9428 10.7641 13.7547 10.7309 13.5106L10.7264 13.4428V4.36426C10.7264 4.08812 10.9502 3.86426 11.2264 3.86426Z" fill="#1771ED"/>
<path d="M13.5905 10.3593C13.7853 10.1636 14.1019 10.1629 14.2976 10.3577C14.4755 10.5348 14.4923 10.8125 14.3475 11.0086L14.2992 11.0648L11.5807 13.7959C11.403 13.9744 11.1242 13.9906 10.9281 13.8446L10.872 13.7959L8.15344 11.0648C7.95863 10.8691 7.95936 10.5525 8.15508 10.3577C8.333 10.1806 8.61081 10.1651 8.80621 10.3108L8.86218 10.3593L11.226 12.734L13.5905 10.3593Z" fill="#1771ED"/>
<path d="M4.60742 2.05524C4.86055 2.05524 5.06975 2.24334 5.10286 2.48739L5.10742 2.55524V11.6338C5.10742 11.9099 4.88356 12.1338 4.60742 12.1338C4.35429 12.1338 4.14509 11.9457 4.11199 11.7016L4.10742 11.6338V2.55524C4.10742 2.27909 4.33128 2.05524 4.60742 2.05524Z" fill="#1771ED"/>
<path d="M4.25313 2.20214C4.43081 2.02363 4.70964 2.00741 4.90571 2.15345L4.96187 2.20214L7.68038 4.93325C7.87519 5.12896 7.87446 5.44554 7.67875 5.64035C7.50083 5.81745 7.22302 5.83295 7.02761 5.68726L6.97164 5.63872L4.60735 3.26332L2.24335 5.63872C2.06625 5.81664 1.78851 5.83342 1.59243 5.68863L1.53624 5.64035C1.35832 5.46325 1.34154 5.18551 1.48633 4.98944L1.53461 4.93325L4.25313 2.20214Z" fill="#1771ED"/>
</g>
</svg>
