<svg width="16" height="16" viewBox="0 0 16 16" fill="none" xmlns="http://www.w3.org/2000/svg">
<path d="M11.2264 3.8643C11.4795 3.8643 11.6887 4.0524 11.7218 4.29645L11.7264 4.3643V13.4428C11.7264 13.719 11.5025 13.9428 11.2264 13.9428C10.9732 13.9428 10.764 13.7547 10.7309 13.5107L10.7264 13.4428V4.3643C10.7264 4.08815 10.9502 3.8643 11.2264 3.8643Z" fill="#1771ED"/>
<path d="M13.5904 10.3593C13.7853 10.1636 14.1018 10.1629 14.2975 10.3577C14.4755 10.5348 14.4922 10.8125 14.3475 11.0086L14.2992 11.0648L11.5807 13.7959C11.403 13.9744 11.1242 13.9907 10.9281 13.8446L10.8719 13.7959L8.15341 11.0648C7.9586 10.8691 7.95933 10.5525 8.15504 10.3577C8.33296 10.1806 8.61077 10.1651 8.80618 10.3108L8.86215 10.3593L11.226 12.734L13.5904 10.3593Z" fill="#1771ED"/>
<path d="M4.60741 2.05526C4.86054 2.05526 5.06973 2.24336 5.10284 2.48741L5.10741 2.55526V11.6338C5.10741 11.9099 4.88355 12.1338 4.60741 12.1338C4.35428 12.1338 4.14508 11.9457 4.11197 11.7016L4.10741 11.6338V2.55526C4.10741 2.27912 4.33126 2.05526 4.60741 2.05526Z" fill="#1771ED" fill-opacity="0.5"/>
<path d="M4.25311 2.20215C4.43079 2.02365 4.70963 2.00742 4.9057 2.15347L4.96185 2.20215L7.68037 4.93326C7.87518 5.12898 7.87445 5.44556 7.67874 5.64037C7.50081 5.81747 7.223 5.83297 7.0276 5.68728L6.97163 5.63874L4.60733 3.26333L2.24333 5.63874C2.06623 5.81666 1.78849 5.83344 1.59242 5.68865L1.53623 5.64037C1.35831 5.46327 1.34153 5.18553 1.48631 4.98945L1.53459 4.93326L4.25311 2.20215Z" fill="#1771ED" fill-opacity="0.5"/>
</svg>
