<svg width="40" height="41" viewBox="0 0 40 41" fill="none" xmlns="http://www.w3.org/2000/svg">
<path opacity="0.4" d="M31.3479 15.5352C30.5954 15.5352 29.5987 15.5185 28.3577 15.5185C25.3311 15.5185 22.8425 13.0135 22.8425 9.9585V4.5985C22.8425 4.17683 22.5042 3.8335 22.0883 3.8335H13.2726C9.15853 3.8335 5.83325 7.21016 5.83325 11.3485V29.3068C5.83325 33.6485 9.31695 37.1668 13.6159 37.1668H26.7421C30.843 37.1668 34.1666 33.8118 34.1666 29.6702V16.2852C34.1666 15.8618 33.8299 15.5202 33.4108 15.5218C32.7078 15.5268 31.8612 15.5352 31.3479 15.5352Z" fill="#BDBDBD"/>
<path opacity="0.4" d="M26.8068 4.77895C26.3085 4.26062 25.4385 4.61728 25.4385 5.33562V9.73062C25.4385 11.5739 26.9568 13.0906 28.7985 13.0906C29.9618 13.1039 31.5751 13.1073 32.9451 13.1039C33.6468 13.1023 34.0035 12.2639 33.5168 11.7573C31.7585 9.92895 28.6101 6.65228 26.8068 4.77895Z" fill="#BDBDBD"/>
<path d="M25.1752 21.9732C24.6902 22.4549 23.9052 22.4582 23.4185 21.9699L20.7702 19.3082V27.3532C20.7702 28.0382 20.2135 28.5949 19.5285 28.5949C18.8435 28.5949 18.2885 28.0382 18.2885 27.3532V19.3082L15.6369 21.9699C15.1536 22.4582 14.3669 22.4549 13.8819 21.9732C13.3969 21.4915 13.3952 20.7049 13.8786 20.2182L18.6486 15.4265C18.6502 15.4249 18.6502 15.4249 18.6502 15.4249C18.7636 15.3115 18.9002 15.2199 19.0502 15.1582C19.2002 15.0949 19.3635 15.0615 19.5285 15.0615C19.6952 15.0615 19.8586 15.0949 20.0086 15.1582C20.1569 15.2199 20.2919 15.3115 20.4052 15.4232C20.4069 15.4249 20.4085 15.4249 20.4085 15.4265L25.1785 20.2182C25.6619 20.7049 25.6619 21.4915 25.1752 21.9732Z" fill="#BDBDBD"/>
</svg>
